<?xml version="1.0" standalone="no"?>
<!DOCTYPE svg PUBLIC "-//W3C//DTD SVG 20010904//EN"
 "http://www.w3.org/TR/2001/REC-SVG-20010904/DTD/svg10.dtd">
<svg version="1.0" xmlns="http://www.w3.org/2000/svg"
 width="500.000000pt" height="500.000000pt" viewBox="0 0 500.000000 500.000000"
 preserveAspectRatio="xMidYMid meet">

<g transform="translate(0.000000,500.000000) scale(0.100000,-0.100000)"
fill="#000000" stroke="none">
<path d="M0 2500 l0 -2500 2500 0 2500 0 0 2500 0 2500 -2500 0 -2500 0 0
-2500z m2350 1314 c0 -3 -7 -12 -15 -20 -11 -12 -15 -39 -15 -109 0 -51 3
-100 6 -109 10 -26 79 -21 98 6 19 27 29 19 20 -16 -6 -26 -7 -26 -97 -26 -87
0 -89 1 -74 18 24 26 25 230 2 238 -30 12 -14 24 30 24 25 0 45 -3 45 -6z
m470 -1 c0 -3 -7 -11 -15 -17 -14 -10 -12 -21 11 -91 15 -44 30 -83 33 -88 4
-4 22 40 41 98 19 58 37 105 41 105 7 0 28 -50 67 -160 13 -34 22 -49 26 -40
22 58 46 136 46 152 0 10 -7 21 -15 24 -28 11 -15 24 25 24 43 0 47 -4 26 -26
-8 -7 -31 -68 -52 -134 -20 -66 -41 -120 -45 -120 -4 0 -24 47 -45 105 -21 58
-41 101 -45 97 -3 -4 -21 -51 -39 -104 -18 -54 -36 -98 -40 -98 -4 0 -26 59
-49 130 -23 72 -46 130 -51 130 -6 0 -10 4 -10 9 0 5 20 9 45 9 25 0 45 -2 45
-5z m-730 -38 l0 -35 -195 0 -195 0 0 -180 0 -180 -35 0 -35 0 0 215 0 215
230 0 230 0 0 -35z m559 -90 c29 -69 57 -125 62 -125 5 0 9 -4 9 -10 0 -5 -21
-10 -47 -9 -38 0 -45 2 -32 11 13 9 14 17 6 45 l-11 34 -60 -3 c-56 -3 -60 -5
-69 -32 -7 -22 -7 -31 2 -34 22 -7 10 -22 -19 -22 -16 0 -30 5 -30 10 0 6 4
10 8 10 5 0 31 56 58 125 27 69 54 125 59 125 6 0 35 -56 64 -125z m549 -1073
l2 -762 -785 0 -785 0 0 415 0 415 35 0 35 0 0 -380 0 -380 715 0 715 0 0 724
c0 766 -2 737 45 731 20 -2 20 -10 23 -763z m-555 641 l217 -68 -2 -30 -3 -30
-442 -3 -443 -3 0 33 0 33 213 67 c116 36 219 67 227 67 8 1 113 -29 233 -66z
m263 -225 c37 -41 43 -72 19 -118 -32 -62 -107 -80 -160 -38 l-28 22 23 18
c17 14 26 15 36 7 7 -6 25 -9 41 -7 36 4 55 50 32 74 -20 19 7 18 -481 16
-414 -2 -417 -2 -429 -23 -17 -34 3 -69 40 -69 16 0 32 4 36 10 6 10 55 -8 55
-21 0 -19 -55 -49 -91 -49 -79 0 -129 80 -94 153 29 61 33 62 525 62 l442 0
34 -37z m-236 -98 l0 -30 -255 0 -255 0 0 30 0 30 255 0 255 0 0 -30z m-482
-517 l-3 -428 -29 0 -29 0 -1 427 -1 428 33 0 33 0 -3 -427z m172 -3 l0 -430
-30 0 -30 0 0 430 0 430 30 0 30 0 0 -430z m170 0 l0 -430 -30 0 -30 0 0 430
0 430 30 0 30 0 0 -430z m175 0 l0 -430 -32 0 -32 0 -1 430 0 430 32 0 33 0 0
-430z m220 -627 c-2 -10 -4 -21 -4 -26 -1 -4 -229 -6 -508 -5 l-508 3 -3 23
-3 22 514 0 c485 0 515 -1 512 -17z m-2017 -204 c-15 -8 -18 -26 -18 -114 l0
-105 39 0 c30 0 44 6 55 22 16 22 16 22 16 -10 l0 -32 -87 0 c-83 0 -85 1 -70
18 25 28 25 207 0 221 -14 8 -7 10 32 10 39 0 46 -2 33 -10z m282 -21 l-1 -33
-15 28 c-12 22 -21 27 -54 27 l-40 0 0 -55 c0 -50 2 -55 23 -55 26 0 42 10 50
30 3 8 6 -5 6 -30 0 -35 -2 -41 -10 -27 -6 10 -22 17 -39 17 -29 0 -30 -2 -30
-45 0 -32 5 -47 18 -54 25 -13 70 -2 87 22 15 21 15 20 15 -11 l0 -32 -92 0
c-80 1 -90 3 -75 14 14 11 17 30 17 113 0 64 -4 103 -12 111 -9 9 6 12 70 12
l82 0 0 -32z m174 -16 c11 -26 36 -82 56 -124 l36 -78 -39 0 c-34 0 -38 2 -27
15 10 12 10 21 2 40 -10 22 -18 25 -62 25 -44 0 -52 -3 -62 -25 -8 -19 -8 -28
2 -40 11 -13 8 -15 -20 -15 -31 0 -32 1 -18 18 9 9 30 55 48 102 18 47 36 95
41 108 13 33 22 27 43 -26z m232 -39 c37 -49 71 -92 76 -97 4 -6 8 27 8 71 0
61 -4 86 -16 97 -14 15 -13 16 16 16 27 0 30 -2 20 -19 -5 -11 -10 -67 -10
-126 0 -70 -3 -104 -10 -100 -6 4 -43 50 -83 103 l-72 97 -3 -84 c-2 -67 0
-87 14 -102 16 -18 16 -19 -21 -19 -36 0 -37 1 -22 18 25 28 25 207 0 221 -16
9 -14 10 9 11 22 0 38 -16 94 -87z m320 72 c45 -18 68 -71 59 -131 -7 -47 -24
-66 -78 -89 -42 -17 -174 -21 -144 -4 14 8 17 25 17 114 0 89 -3 106 -17 114
-29 17 122 13 163 -4z m242 -1 c31 -22 29 -67 -4 -93 l-26 -20 22 -38 c13 -21
34 -48 49 -60 l26 -23 -31 0 c-27 0 -35 7 -65 57 -19 32 -42 59 -51 61 -15 3
-18 -4 -18 -45 0 -27 5 -54 12 -61 9 -9 2 -12 -32 -12 -36 1 -41 3 -27 11 14
8 17 25 17 109 0 76 -4 102 -16 114 -14 15 -9 16 53 16 46 0 76 -5 91 -16z
m279 -19 c34 -34 35 -38 31 -96 -4 -48 -9 -65 -31 -87 -23 -23 -36 -27 -81
-27 -44 0 -59 5 -80 24 -41 38 -53 91 -33 143 20 53 57 77 116 78 36 0 49 -6
78 -35z m229 -63 c22 -51 43 -95 46 -98 3 -2 23 39 45 93 36 89 42 98 68 101
26 3 27 2 12 -13 -10 -9 -15 -26 -13 -38 3 -12 8 -53 11 -92 4 -42 12 -76 22
-87 15 -17 13 -18 -32 -18 -45 0 -47 1 -32 18 12 14 14 30 8 84 -4 37 -9 70
-12 73 -4 3 -21 -33 -39 -80 -18 -47 -37 -88 -42 -91 -5 -3 -28 36 -51 86 -35
78 -43 88 -48 69 -12 -41 -10 -134 3 -147 9 -9 3 -12 -27 -12 -36 0 -37 1 -21
18 23 26 36 209 15 223 -10 7 -6 9 16 7 26 -3 33 -11 71 -96z m420 64 c29 -29
34 -41 34 -80 0 -85 -47 -136 -124 -136 -45 0 -92 39 -107 90 -10 33 -9 47 4
82 20 53 57 77 116 78 36 0 49 -6 77 -34z m222 18 c33 -23 29 -68 -7 -95 l-29
-21 35 -49 c19 -27 41 -49 49 -49 8 0 14 -4 14 -10 0 -5 -13 -10 -29 -10 -24
0 -34 9 -65 60 -46 75 -66 78 -66 12 0 -26 5 -53 12 -60 9 -9 3 -12 -30 -12
-42 0 -42 0 -28 23 21 34 22 189 1 211 -15 15 -11 16 52 16 46 0 76 -5 91 -16z
m242 9 c0 -5 3 -19 7 -33 l6 -25 -26 28 c-17 18 -36 27 -57 27 -30 0 -30 0
-30 -55 0 -51 2 -55 24 -55 13 0 30 10 39 23 16 21 16 21 16 -20 1 -24 -3 -43
-9 -43 -5 0 -10 7 -10 15 0 10 -10 15 -30 15 -29 0 -30 -1 -30 -49 0 -34 4
-51 15 -55 25 -9 75 6 86 26 14 26 22 17 13 -16 -6 -25 -8 -26 -89 -26 l-84 0
15 28 c20 39 19 185 -2 206 -14 15 -8 16 65 16 45 0 81 -3 81 -7z m116 -9
c-22 -22 -23 -180 0 -212 15 -22 15 -22 -27 -22 -34 0 -40 3 -31 12 17 17 17
224 0 231 -7 3 6 6 30 6 40 1 42 0 28 -15z m208 -5 c14 -11 26 -29 26 -40 0
-20 -28 -53 -50 -61 -15 -5 30 -83 64 -110 21 -18 21 -18 -11 -18 -22 0 -33 6
-38 19 -10 33 -64 101 -80 101 -23 0 -21 -89 3 -106 15 -12 11 -13 -33 -13
-39 0 -46 2 -32 10 14 8 17 25 17 114 0 89 -3 106 -17 114 -14 8 0 10 53 11
57 0 76 -4 98 -21z m240 -94 c27 -63 53 -115 58 -115 4 0 8 -4 8 -10 0 -5 -19
-10 -41 -10 -36 0 -40 2 -29 15 10 12 10 21 2 40 -10 22 -18 25 -62 25 -44 0
-52 -3 -62 -25 -8 -19 -8 -28 2 -40 11 -13 8 -15 -20 -15 -31 0 -32 1 -18 18
9 9 30 55 48 102 18 47 36 95 41 108 5 12 12 22 16 22 5 0 30 -52 57 -115z
m-1211 -270 c-3 -9 -8 -14 -10 -11 -3 3 -2 9 2 15 9 16 15 13 8 -4z m-136 -32
c-3 -10 -5 -4 -5 12 0 17 2 24 5 18 2 -7 2 -21 0 -30z"/>
<path d="M2558 3729 c-34 -79 -34 -79 16 -79 25 0 46 3 45 8 0 4 -11 30 -23
57 l-23 50 -15 -36z"/>
<path d="M1306 1497 c-9 -23 -16 -46 -16 -50 0 -4 18 -7 40 -7 22 0 40 2 40 4
0 9 -39 96 -43 96 -2 0 -12 -19 -21 -43z"/>
<path d="M1800 1475 c0 -86 3 -106 16 -113 24 -13 86 3 107 29 19 24 23 92 7
133 -11 30 -57 56 -100 56 l-30 0 0 -105z"/>
<path d="M2060 1525 c0 -54 1 -55 28 -55 52 0 81 59 46 94 -8 9 -29 16 -45 16
-29 0 -29 -1 -29 -55z"/>
<path d="M2300 1562 c-32 -26 -40 -112 -15 -158 24 -44 69 -63 104 -43 38 21
52 56 48 113 -7 84 -83 132 -137 88z"/>
<path d="M2950 1562 c-32 -26 -40 -112 -15 -158 24 -44 69 -63 104 -43 38 21
52 56 48 113 -7 84 -83 132 -137 88z"/>
<path d="M3210 1525 c0 -51 2 -55 23 -55 33 0 67 28 67 55 0 27 -34 55 -67 55
-21 0 -23 -4 -23 -55z"/>
<path d="M3777 1573 c-4 -3 -7 -28 -7 -55 0 -46 1 -48 28 -48 54 0 86 76 43
100 -22 11 -54 13 -64 3z"/>
<path d="M4026 1497 c-9 -23 -16 -46 -16 -50 0 -4 18 -7 40 -7 22 0 40 2 40 4
0 9 -39 96 -43 96 -2 0 -12 -19 -21 -43z"/>
</g>
</svg>
